<svg aria-hidden="true" style="position: absolute; width: 0; height: 0; overflow: hidden;" version="1.1" xmlns="http://www.w3.org/2000/svg" xmlns:xlink="http://www.w3.org/1999/xlink">
<defs>
<symbol id="icon-twitter" viewBox="0 0 39 32">
<path d="M39.385 3.788c-1.465 0.642-3.025 1.068-4.652 1.275 1.674-0.999 2.951-2.57 3.552-4.463-1.561 0.93-3.284 1.588-5.12 1.954-1.482-1.578-3.594-2.555-5.898-2.555-4.47 0-8.069 3.628-8.069 8.076 0 0.64 0.054 1.255 0.187 1.841-6.713-0.327-12.652-3.545-16.642-8.446-0.697 1.209-1.105 2.592-1.105 4.081 0 2.796 1.44 5.275 3.586 6.71-1.297-0.025-2.57-0.401-3.648-0.994 0 0.025 0 0.057 0 0.089 0 3.924 2.799 7.183 6.469 7.934-0.657 0.18-1.374 0.266-2.117 0.266-0.517 0-1.039-0.030-1.529-0.138 1.046 3.198 4.015 5.548 7.545 5.625-2.747 2.149-6.235 3.444-10.011 3.444-0.662 0-1.297-0.030-1.932-0.111 3.577 2.306 7.815 3.623 12.386 3.623 14.858 0 22.981-12.308 22.981-22.976 0-0.357-0.012-0.702-0.030-1.044 1.602-1.137 2.949-2.558 4.047-4.192z"></path>
</symbol>
<symbol id="icon-logo-black" viewBox="0 0 140 32">
<path fill="#181e4b" style="fill: var(--color1, #181e4b)" d="M13.097 23.025c0 2.402-1.201 4.141-3.727 4.141s-3.686-1.739-3.727-4.141h-4.762c0 5.218 3.52 8.324 8.489 8.324s8.489-3.106 8.489-8.324v-20.747h-4.762v20.747zM23.966 19.546c0 7.040 4.762 11.885 10.684 11.885 3.81 0 6.543-1.822 7.992-3.768v3.396h4.762v-22.818h-4.762v3.313c-1.408-1.864-4.058-3.686-7.91-3.686-6.005 0-10.767 4.638-10.767 11.678zM42.643 19.629c0 4.928-3.354 7.703-6.916 7.703-3.52 0-6.916-2.857-6.916-7.785s3.396-7.578 6.916-7.578c3.561 0 6.916 2.775 6.916 7.661zM52.032 19.546c0 7.040 4.762 11.885 10.767 11.885 3.727 0 6.46-1.739 7.91-3.81v3.437h4.762v-30.645h-4.762v11.016c-1.739-2.153-4.887-3.561-7.868-3.561-6.046 0-10.808 4.638-10.808 11.678zM70.709 19.629c0 4.928-3.354 7.703-6.916 7.703-3.52 0-6.916-2.857-6.916-7.785s3.396-7.578 6.916-7.578c3.561 0 6.916 2.775 6.916 7.661zM103.414 19.629c0-7.164-5.135-11.761-11.637-11.761s-11.637 4.597-11.637 11.761 4.928 11.802 11.43 11.802c6.543 0 11.844-4.638 11.844-11.802zM84.944 19.629c0-5.176 3.189-7.661 6.75-7.661 3.52 0 6.875 2.485 6.875 7.661s-3.479 7.703-6.999 7.703c-3.561 0-6.626-2.526-6.626-7.703zM129.821 19.629c0-7.164-5.135-11.761-11.637-11.761s-11.637 4.597-11.637 11.761c0 7.164 4.928 11.802 11.43 11.802 6.543 0 11.844-4.638 11.844-11.802zM111.352 19.629c0-5.176 3.189-7.661 6.75-7.661 3.52 0 6.874 2.485 6.874 7.661s-3.479 7.703-6.999 7.703c-3.561 0-6.626-2.526-6.626-7.703zM139.375 28.326c0-1.698-1.325-3.023-2.982-3.023-1.698 0-3.023 1.325-3.023 3.023s1.325 3.023 3.023 3.023c1.656 0 2.982-1.325 2.982-3.023z"></path>
</symbol>
<symbol id="icon-logo" viewBox="0 0 106 32">
<path fill="#f1a501" style="fill: var(--color2, #f1a501)" d="M68.571 26.514l8.686 2.743 7.314-7.314 9.143 6.4 9.6-1.829-4.114-13.257-14.629 4.571-8.229-4.571-8.686 1.371 0.914 11.886z"></path>
<path fill="#000" style="fill: var(--color3, #000)" d="M0.841 22.001v-1.977l5.594-1.009v2.734c0.028 1.486 0.407 2.608 1.136 3.365 0.757 0.729 1.752 1.093 2.986 1.093 1.206 0 2.159-0.392 2.86-1.178 0.729-0.785 1.094-1.837 1.094-3.154v-20.608h5.804v20.608c0 2.748-0.911 5.075-2.734 6.982s-4.15 2.86-6.982 2.86c-2.944 0-5.313-0.883-7.108-2.65-1.766-1.794-2.65-4.15-2.65-7.066z"></path>
<path fill="#000" style="fill: var(--color3, #000)" d="M21.647 25.45c0-1.766 0.575-3.182 1.724-4.248s2.636-1.738 4.458-2.019l5.089-0.757c1.037-0.14 1.556-0.631 1.556-1.472 0-0.785-0.308-1.43-0.925-1.935-0.589-0.505-1.444-0.757-2.566-0.757-1.178 0-2.117 0.322-2.818 0.967-0.673 0.645-1.051 1.444-1.136 2.397l-4.963-1.051c0.196-1.794 1.079-3.379 2.65-4.752s3.645-2.061 6.224-2.061c3.084 0 5.355 0.743 6.813 2.229 1.458 1.458 2.187 3.336 2.187 5.636v10.178c0 1.234 0.084 2.327 0.252 3.28h-5.131c-0.14-0.617-0.21-1.444-0.21-2.481-1.318 2.047-3.351 3.070-6.098 3.070-2.131 0-3.855-0.617-5.173-1.851-1.29-1.234-1.935-2.692-1.935-4.374zM29.933 27.511c1.318 0 2.397-0.365 3.238-1.093 0.869-0.757 1.304-1.991 1.304-3.701v-0.925l-4.668 0.715c-1.71 0.252-2.566 1.122-2.566 2.608 0 0.673 0.238 1.248 0.715 1.724 0.477 0.449 1.136 0.673 1.977 0.673z"></path>
<path fill="#000" style="fill: var(--color3, #000)" d="M61.858 0.636v26.706c0 1.374 0.056 2.622 0.168 3.743h-5.341c-0.14-0.701-0.21-1.5-0.21-2.397-0.477 0.869-1.234 1.57-2.271 2.103-1.009 0.533-2.187 0.799-3.533 0.799-2.944 0-5.369-1.023-7.276-3.070-1.879-2.075-2.818-4.682-2.818-7.823 0-3.056 0.925-5.622 2.776-7.696 1.879-2.075 4.262-3.112 7.15-3.112 2.972 0 4.921 0.855 5.846 2.566v-11.818h5.51zM46.213 20.698c0 1.822 0.477 3.266 1.43 4.332 0.953 1.037 2.187 1.556 3.701 1.556 1.486 0 2.706-0.533 3.659-1.598s1.43-2.509 1.43-4.332c0-1.794-0.477-3.196-1.43-4.206-0.953-1.037-2.173-1.556-3.659-1.556s-2.72 0.519-3.701 1.556c-0.953 1.037-1.43 2.453-1.43 4.248z"></path>
<path fill="#000" style="fill: var(--color3, #000)" d="M70.114 25.072c1.037 1.037 2.285 1.556 3.743 1.556s2.692-0.519 3.701-1.556c1.037-1.037 1.556-2.481 1.556-4.332s-0.519-3.294-1.556-4.332c-1.009-1.037-2.243-1.556-3.701-1.556s-2.706 0.519-3.743 1.556c-1.009 1.037-1.514 2.481-1.514 4.332s0.505 3.294 1.514 4.332zM66.076 12.875c2.075-2.075 4.668-3.112 7.781-3.112s5.692 1.037 7.739 3.112c2.075 2.075 3.112 4.696 3.112 7.865s-1.037 5.79-3.112 7.865c-2.047 2.075-4.626 3.112-7.739 3.112s-5.706-1.037-7.781-3.112c-2.047-2.075-3.070-4.696-3.070-7.865s1.023-5.79 3.070-7.865z"></path>
<path fill="#000" style="fill: var(--color3, #000)" d="M91.31 25.072c1.038 1.037 2.285 1.556 3.743 1.556s2.692-0.519 3.701-1.556c1.038-1.037 1.556-2.481 1.556-4.332s-0.518-3.294-1.556-4.332c-1.009-1.037-2.243-1.556-3.701-1.556s-2.705 0.519-3.743 1.556c-1.009 1.037-1.514 2.481-1.514 4.332s0.505 3.294 1.514 4.332zM87.272 12.875c2.075-2.075 4.668-3.112 7.781-3.112s5.691 1.037 7.739 3.112c2.075 2.075 3.112 4.696 3.112 7.865s-1.038 5.79-3.112 7.865c-2.047 2.075-4.626 3.112-7.739 3.112s-5.706-1.037-7.781-3.112c-2.047-2.075-3.070-4.696-3.070-7.865s1.023-5.79 3.070-7.865z"></path>
</symbol>
</defs>
</svg>
